<svg width="40" height="32" viewBox="0 0 40 32" fill="none" xmlns="http://www.w3.org/2000/svg">
<path d="M19.9978 23.994C22.1195 23.994 24.1544 23.1511 25.6547 21.6509C27.155 20.1506 27.9978 18.1157 27.9978 15.994C27.9978 13.8723 27.155 11.8374 25.6547 10.3371C24.1544 8.83685 22.1195 7.994 19.9978 7.994C17.8761 7.994 15.8412 8.83685 14.341 10.3371C12.8407 11.8374 11.9978 13.8723 11.9978 15.994C11.9978 18.1157 12.8407 20.1506 14.341 21.6509C15.8412 23.1511 17.8761 23.994 19.9978 23.994ZM38.0078 0H2.00781C1.47738 0 0.968672 0.210714 0.593599 0.585787C0.218526 0.96086 0.0078125 1.46957 0.0078125 2V30C0.0078125 30.5304 0.218526 31.0391 0.593599 31.4142C0.968672 31.7893 1.47738 32 2.00781 32H38.0078C38.5382 32 39.047 31.7893 39.422 31.4142C39.7971 31.0391 40.0078 30.5304 40.0078 30V2C40.0078 1.46957 39.7971 0.96086 39.422 0.585787C39.047 0.210714 38.5382 0 38.0078 0ZM4.00781 23.286V8.702C5.11876 8.36766 6.12953 7.76319 6.94972 6.94265C7.76991 6.12212 8.37395 5.11109 8.70781 4H31.2898C31.6248 5.11388 32.2313 6.12707 33.0548 6.9485C33.8783 7.76993 34.8931 8.37386 36.0078 8.706V23.282C34.8913 23.615 33.8753 24.2206 33.0513 25.0442C32.2273 25.8679 31.6213 26.8837 31.2878 28H8.70781C8.37547 26.8865 7.77189 25.8729 6.95123 25.0501C6.13057 24.2273 5.1205 23.6212 4.00781 23.286Z" fill="#004DE5"/>
</svg>
