<svg width="240" height="24" viewBox="0 0 240 24" fill="none" xmlns="http://www.w3.org/2000/svg">
<g clip-path="url(#clip0_26_4152)">
<path fill-rule="evenodd" clip-rule="evenodd" d="M113.28 19.2915C109.052 19.2915 106.08 16.5226 106.08 12C106.08 7.49587 109.052 4.70847 113.28 4.70847C115.495 4.70847 117.342 5.29918 118.855 6.59135L122.123 3.45322C119.71 1.19181 116.513 -0.0455954 113.206 0.00128504C105.914 0.00128504 100.652 4.91153 100.652 12C100.652 19.0516 105.914 23.9987 113.206 23.9987C116.954 23.9987 119.926 22.6142 122.123 20.5468L118.855 17.4087C117.289 18.6955 115.306 19.3651 113.28 19.2915ZM72.8123 11.9631C72.8123 4.98537 78.0923 0.0935829 85.2923 0.0935829C92.6215 0.0935829 97.8462 4.98537 97.8462 11.9631C97.8462 18.9777 92.5662 23.8326 85.2923 23.8326C78.0185 23.8326 72.8123 18.9593 72.8123 11.9631ZM78.2585 11.9631C78.2585 16.3934 81.1569 19.1623 85.3108 19.1623C89.5015 19.1623 92.3815 16.3934 92.3815 11.9631C92.3815 7.49587 89.5015 4.76385 85.3108 4.76385C81.1569 4.76385 78.2585 7.49587 78.2585 11.9631ZM14.5662 10.9663L4.63385 23.5741H0V0.370476H5.52V12.0738C5.52 13.2183 5.48308 14.1044 5.44615 14.9351L5.40923 16.0426C5.59385 16.0057 6.20308 15.0458 6.75692 14.1967C7.08923 13.6798 7.40308 13.1999 7.58769 12.9599L17.4277 0.370476H22.1538V23.5741H16.6154V11.2062C16.6154 10.2094 16.6154 9.36028 16.6892 8.19733C16.4492 8.23425 15.7846 9.21261 15.2123 10.0433L14.5846 10.9663H14.5662ZM49.0338 23.5741H43.5138V14.3259H32.8062V23.5557H27.3231V0.370476H32.8431V9.41566H43.5508V0.370476H49.0523V23.5741H49.0338ZM54.2031 23.5741H59.7415V5.2438H72.3692V0.370476H54.2031V23.5741ZM129.378 12C129.378 16.5041 132.332 19.2915 136.56 19.2915C138.775 19.2915 140.622 18.7008 142.135 17.4087L145.403 20.5468C142.99 22.8082 139.793 24.0456 136.486 23.9987C129.194 23.9987 123.932 19.0516 123.932 12C123.932 4.91153 129.194 0.00128504 136.486 0.00128504C140.234 0.00128504 143.206 1.38575 145.403 3.45322L142.154 6.59135C140.587 5.30454 138.604 4.63487 136.578 4.70847C132.351 4.70847 129.378 7.47741 129.378 12ZM147.748 5.11458H155.465V23.5741H161.003V5.11458H168.72V0.370476H147.748V5.11458ZM177.028 16.7995V23.5741H171.508V0.370476H181.994C190.117 0.370476 192.074 4.63464 192.074 8.6219C192.074 12.5353 189.489 16.7995 181.698 16.7995H177.028ZM186.388 8.58498C186.388 6.66519 185.132 4.94845 181.495 4.94845H177.028V12.24H181.274C185.003 12.24 186.388 10.6709 186.388 8.58498ZM190.56 23.5741H195.84L197.815 19.2915H208.375L210.314 23.5741H222.018L227.778 15.6735L233.538 23.5741H240L231.12 11.7969L239.723 0.352017H233.262L227.778 7.88352L222.332 0.370476H215.926L224.474 11.8154L215.705 23.408L205.292 0.370476H201.009L190.542 23.5741H190.56ZM202.209 9.56334C202.578 8.58498 203.077 7.27435 203.262 7.21897C203.538 8.14195 203.815 8.91725 204.148 9.71102L206.308 14.8797H199.791L201.877 10.4494L202.209 9.56334Z" fill="#004DE5"/>
</g>
<defs>
<clipPath id="clip0_26_4152">
<rect width="240" height="24" fill="white"/>
</clipPath>
</defs>
</svg>
